# xmcd
#
# Track frame offsets:
#	150
#	9248
#	25151
#	40076
#	60151
#	73590
#	87681
#	106074
#	125478
#	139676
#	158871
#	172806
#
# Disc length: 2420 seconds
#
# Revision: 1
# Processed by: cddbd v1.5PL3 Copyright (c) Steve Scherf et al.
# Submitted via: CDex 1.50Beta5
#
DISCID=8d09720c
DTITLE=西村由紀江 - Virgin
DYEAR=2000
DGENRE=
TTITLE0=pure water
TTITLE1=はじまりの予感
TTITLE2=前向きな瞳
TTITLE3=鏡花水月
TTITLE4=あなたに最高のしあわせを
TTITLE5=すずしい風に吹かれながら
TTITLE6=最果てに揺れる花
TTITLE7=手紙
TTITLE8=よろこびのうた
TTITLE9=恋がくれたもの
TTITLE10=いつまでも
TTITLE11=すき
EXTD=
EXTT0=
EXTT1=
EXTT2=
EXTT3=
EXTT4=
EXTT5=
EXTT6=
EXTT7=
EXTT8=
EXTT9=
EXTT10=
EXTT11=
PLAYORDER=
